# xmcd
#
# Track frame offsets: 
#        150
#        25849
#        47380
#        67797
#        92546
#        110052
#        141071
#        174646
#        194879
#        212442
#        239034
#        258869
#        282819
#
# Disc length: 4051 seconds
#
# Revision: 0
# Processed by: cddbd v1.5.2PL0 Copyright (c) Steve Scherf et al.
# Submitted via: ExactAudioCopy v1.0b1
#
DISCID=b60fd10d
DTITLE=Yo-Yo Ma, Stuart Duncan, Edgar Meyer, Chris Thile - The Goat Ro
DTITLE=deo Sessions
DYEAR=2011
DGENRE=Instrumental
TTITLE0=Attaboy
TTITLE1=Quarter Chicken Dark
TTITLE2=Helping Hand
TTITLE3=Where's My Bow?
TTITLE4=Here and Heaven
TTITLE5=Franz and the Eagle
TTITLE6=Less is Moi
TTITLE7=Hill Justice
TTITLE8=No One but You
TTITLE9=13:8
TTITLE10=Goat Rodeo
TTITLE11=Parallax
TTITLE12=Mostly Six Eight
EXTD=
EXTT0=
EXTT1=
EXTT2=
EXTT3=
EXTT4=
EXTT5=
EXTT6=
EXTT7=
EXTT8=
EXTT9=
EXTT10=
EXTT11=
EXTT12=
PLAYORDER=
